<svg width="128" height="115" viewBox="0 0 128 115" fill="none" xmlns="http://www.w3.org/2000/svg">
<path d="M127.5 0.5V58.8799H0.5V0.5H127.5Z" fill="#040000" stroke="black"/>
<path d="M122.208 4.45984V53.6034H75.7031V4.45984H122.208Z" fill="#FFEC3D" stroke="black"/>
<path d="M15.3223 4.45984V53.6034H5.76562V4.45984H15.3223Z" fill="#FFEC3D" fill-opacity="0.13" stroke="black"/>
<path d="M39.0962 4.45984V53.6034H20.3022V4.45984H39.0962Z" fill="#FFEC3D" fill-opacity="0.23" stroke="black"/>
<path d="M70.769 4.45984V53.6034H42.7378V4.45984H70.769Z" fill="#FFEC3D" fill-opacity="0.5" stroke="black"/>
<path d="M0.5 55.3112V113.691H127.5V55.3112H0.5Z" fill="#040000" stroke="black"/>
<path d="M5.79248 59.2672V108.411H52.2974V59.2672H5.79248Z" fill="#FFEC3D" stroke="black"/>
<path d="M112.678 59.2672V108.411H122.235V59.2672H112.678Z" fill="#FFEC3D" fill-opacity="0.13" stroke="black"/>
<path d="M88.9038 59.2672V108.411H107.698V59.2672H88.9038Z" fill="#FFEC3D" fill-opacity="0.23" stroke="black"/>
<path d="M57.2314 59.2672V108.411H85.2627V59.2672H57.2314Z" fill="#FFEC3D" fill-opacity="0.5" stroke="black"/>
</svg>
