<svg width="1280" height="530" viewBox="0 0 1280 530" fill="none" xmlns="http://www.w3.org/2000/svg">
<g clip-path="url(#clip0_744_194)">
<rect width="1280" height="530" fill="#EEFF00"/>
<path d="M-40 180.856C413.405 634.124 405.433 720.089 715.342 589.579C1025.25 459.069 1265.9 531.748 1381 141" stroke="#95A72F" stroke-width="2"/>
<path d="M157.504 -49.5C109.337 152.833 30.8034 580.5 296.003 630.5C627.503 693 59.0034 -297 413.503 -78.5C768.003 140 269.503 678.5 603.003 643C936.503 607.5 1675.46 897.012 1371 529C1040.5 129.5 -595.496 -57.5 260.004 -78.5C944.404 -95.3 1277.67 225.167 1312 373" stroke="#95A72F" stroke-width="2"/>
<g filter="url(#filter0_d_744_194)">
<path d="M143.768 250V199.6H176.672V208.096H152.984V241.504H176.96V250H143.768ZM148.088 228.4V220.048H173V228.4H148.088ZM211.666 250L200.794 235.312L198.85 232.648L183.226 212.056H194.098L204.754 226.456L206.842 229.336L222.322 250H211.666ZM183.154 250L198.202 229.912L203.17 235.888L193.522 250H183.154ZM206.914 232.288L202.09 226.312L210.802 212.056H221.242L206.914 232.288ZM228.668 265.84V212.056H237.308L237.452 220.624L235.94 219.976C236.228 218.488 237.044 217.096 238.388 215.8C239.732 214.504 241.364 213.448 243.284 212.632C245.252 211.816 247.292 211.408 249.404 211.408C252.764 211.408 255.74 212.248 258.332 213.928C260.972 215.608 263.036 217.936 264.524 220.912C266.06 223.84 266.828 227.2 266.828 230.992C266.828 234.784 266.084 238.168 264.596 241.144C263.108 244.072 261.044 246.4 258.404 248.128C255.812 249.808 252.86 250.648 249.548 250.648C247.34 250.648 245.204 250.216 243.14 249.352C241.124 248.488 239.42 247.36 238.028 245.968C236.636 244.576 235.748 243.136 235.364 241.648L237.524 240.568V265.84H228.668ZM247.82 242.8C249.836 242.8 251.636 242.296 253.22 241.288C254.804 240.28 256.052 238.888 256.964 237.112C257.876 235.336 258.332 233.296 258.332 230.992C258.332 228.688 257.876 226.672 256.964 224.944C256.1 223.168 254.876 221.776 253.292 220.768C251.708 219.712 249.884 219.184 247.82 219.184C245.708 219.184 243.86 219.688 242.276 220.696C240.692 221.704 239.444 223.096 238.532 224.872C237.62 226.648 237.164 228.688 237.164 230.992C237.164 233.296 237.62 235.336 238.532 237.112C239.444 238.888 240.692 240.28 242.276 241.288C243.86 242.296 245.708 242.8 247.82 242.8ZM296.395 250V225.736C296.395 223.672 295.699 222.064 294.307 220.912C292.963 219.712 291.211 219.112 289.051 219.112C287.035 219.112 285.211 219.52 283.579 220.336C281.947 221.104 280.435 222.352 279.043 224.08L273.571 218.608C275.827 216.208 278.323 214.384 281.059 213.136C283.795 211.888 286.747 211.264 289.915 211.264C292.939 211.264 295.531 211.744 297.691 212.704C299.899 213.664 301.603 215.104 302.803 217.024C304.003 218.896 304.603 221.2 304.603 223.936V250H296.395ZM285.595 250.72C283.147 250.72 280.963 250.24 279.043 249.28C277.123 248.32 275.587 247 274.435 245.32C273.331 243.592 272.779 241.576 272.779 239.272C272.779 237.256 273.139 235.504 273.859 234.016C274.579 232.48 275.635 231.208 277.027 230.2C278.467 229.192 280.243 228.448 282.355 227.968C284.515 227.44 286.987 227.176 289.771 227.176H300.643L299.995 233.512H289.267C287.971 233.512 286.819 233.632 285.811 233.872C284.803 234.112 283.939 234.472 283.219 234.952C282.499 235.432 281.971 236.008 281.635 236.68C281.299 237.304 281.131 238.072 281.131 238.984C281.131 239.944 281.371 240.784 281.851 241.504C282.331 242.176 282.979 242.704 283.795 243.088C284.611 243.472 285.571 243.664 286.675 243.664C288.259 243.664 289.747 243.4 291.139 242.872C292.579 242.344 293.851 241.6 294.955 240.64C296.059 239.68 296.923 238.6 297.547 237.4L299.347 242.296C298.339 243.976 297.091 245.44 295.603 246.688C294.163 247.936 292.579 248.92 290.851 249.64C289.171 250.36 287.419 250.72 285.595 250.72ZM313.957 250V212.056H322.525L322.669 219.832L321.013 220.696C321.541 219.016 322.477 217.48 323.821 216.088C325.213 214.648 326.869 213.496 328.789 212.632C330.709 211.72 332.701 211.264 334.765 211.264C337.645 211.264 340.045 211.84 341.965 212.992C343.933 214.144 345.397 215.872 346.357 218.176C347.317 220.48 347.797 223.36 347.797 226.816V250H339.013V227.464C339.013 225.496 338.749 223.888 338.221 222.64C337.693 221.344 336.877 220.408 335.773 219.832C334.669 219.208 333.325 218.944 331.741 219.04C330.445 219.04 329.245 219.256 328.141 219.688C327.037 220.072 326.077 220.648 325.261 221.416C324.493 222.136 323.869 223 323.389 224.008C322.957 224.968 322.741 226.024 322.741 227.176V250H318.349C317.533 250 316.741 250 315.973 250C315.253 250 314.581 250 313.957 250ZM373.168 250.72C369.76 250.72 366.712 249.88 364.024 248.2C361.384 246.472 359.272 244.144 357.688 241.216C356.152 238.24 355.384 234.832 355.384 230.992C355.384 227.2 356.152 223.816 357.688 220.84C359.224 217.864 361.312 215.536 363.952 213.856C366.64 212.128 369.664 211.264 373.024 211.264C374.848 211.264 376.6 211.552 378.28 212.128C380.008 212.704 381.544 213.496 382.888 214.504C384.28 215.464 385.36 216.544 386.128 217.744C386.944 218.944 387.376 220.192 387.424 221.488L385.048 221.776V196.72H393.904V250H385.336L385.12 241.144L386.848 241.288C386.8 242.44 386.392 243.568 385.624 244.672C384.856 245.776 383.824 246.784 382.528 247.696C381.28 248.608 379.84 249.352 378.208 249.928C376.576 250.456 374.896 250.72 373.168 250.72ZM374.824 243.232C376.888 243.232 378.712 242.728 380.296 241.72C381.88 240.664 383.104 239.224 383.968 237.4C384.88 235.528 385.336 233.392 385.336 230.992C385.336 228.592 384.88 226.48 383.968 224.656C383.104 222.832 381.88 221.392 380.296 220.336C378.712 219.28 376.888 218.752 374.824 218.752C372.712 218.752 370.864 219.28 369.28 220.336C367.744 221.392 366.52 222.832 365.608 224.656C364.696 226.48 364.24 228.592 364.24 230.992C364.24 233.392 364.696 235.528 365.608 237.4C366.52 239.224 367.744 240.664 369.28 241.72C370.864 242.728 372.712 243.232 374.824 243.232ZM430.883 266.56L438.875 247.984L438.947 253.96L420.227 212.056H430.379L440.891 237.04C441.227 237.664 441.563 238.504 441.899 239.56C442.235 240.568 442.523 241.552 442.763 242.512L440.963 243.16C441.299 242.248 441.635 241.264 441.971 240.208C442.355 239.152 442.739 238.096 443.123 237.04L452.051 212.056H462.275L446.507 250L440.099 266.56H430.883ZM484.378 250.72C480.586 250.72 477.202 249.88 474.226 248.2C471.25 246.472 468.898 244.12 467.17 241.144C465.49 238.168 464.65 234.784 464.65 230.992C464.65 227.2 465.49 223.816 467.17 220.84C468.898 217.864 471.25 215.536 474.226 213.856C477.202 212.128 480.586 211.264 484.378 211.264C488.122 211.264 491.482 212.128 494.458 213.856C497.434 215.536 499.762 217.864 501.442 220.84C503.17 223.816 504.034 227.2 504.034 230.992C504.034 234.784 503.17 238.168 501.442 241.144C499.762 244.12 497.434 246.472 494.458 248.2C491.482 249.88 488.122 250.72 484.378 250.72ZM484.378 242.872C486.442 242.872 488.29 242.368 489.922 241.36C491.554 240.304 492.826 238.888 493.738 237.112C494.698 235.288 495.154 233.248 495.106 230.992C495.154 228.688 494.698 226.648 493.738 224.872C492.826 223.048 491.554 221.632 489.922 220.624C488.29 219.616 486.442 219.112 484.378 219.112C482.314 219.112 480.442 219.64 478.762 220.696C477.13 221.704 475.858 223.12 474.946 224.944C474.034 226.72 473.578 228.736 473.578 230.992C473.578 233.248 474.034 235.288 474.946 237.112C475.858 238.888 477.13 240.304 478.762 241.36C480.442 242.368 482.314 242.872 484.378 242.872ZM525.133 250.72C522.397 250.72 520.021 250.096 518.005 248.848C516.037 247.6 514.501 245.848 513.397 243.592C512.341 241.336 511.813 238.624 511.813 235.456V212.056H520.597V233.584C520.597 236.56 521.293 238.912 522.685 240.64C524.125 242.368 526.117 243.232 528.661 243.232C529.909 243.232 531.037 243.04 532.045 242.656C533.101 242.224 534.013 241.648 534.781 240.928C535.549 240.16 536.149 239.248 536.581 238.192C537.013 237.136 537.229 236.008 537.229 234.808V212.056H546.013V250H537.445L537.301 242.08L538.885 241.216C538.309 242.992 537.325 244.6 535.933 246.04C534.589 247.48 532.981 248.632 531.109 249.496C529.237 250.312 527.245 250.72 525.133 250.72ZM556.465 250V212.056H565.105L565.249 224.152L564.097 221.416C564.625 219.496 565.537 217.768 566.833 216.232C568.129 214.696 569.617 213.496 571.297 212.632C573.025 211.72 574.801 211.264 576.625 211.264C577.441 211.264 578.209 211.336 578.929 211.48C579.697 211.624 580.321 211.792 580.801 211.984L578.497 221.632C577.921 221.344 577.249 221.128 576.481 220.984C575.761 220.792 575.017 220.696 574.249 220.696C573.001 220.696 571.825 220.936 570.721 221.416C569.665 221.848 568.729 222.472 567.913 223.288C567.145 224.104 566.521 225.064 566.041 226.168C565.561 227.224 565.321 228.4 565.321 229.696V250H556.465ZM603.904 250L623.56 199.6H632.272L651.784 250H642.136L631.264 221.2C631.072 220.672 630.76 219.784 630.328 218.536C629.944 217.288 629.512 215.92 629.032 214.432C628.552 212.944 628.096 211.576 627.664 210.328C627.28 209.08 627.016 208.144 626.872 207.52L628.672 207.448C628.384 208.408 628.048 209.512 627.664 210.76C627.28 211.96 626.872 213.208 626.44 214.504C626.008 215.8 625.576 217.048 625.144 218.248C624.712 219.448 624.328 220.528 623.992 221.488L613.192 250H603.904ZM612.832 238.408L616 230.344H638.968L642.496 238.408H612.832ZM658.279 250V241.72H666.487V207.88H658.279V199.6H684.055V207.88H675.775V241.72H684.055V250H658.279ZM730.918 250.72C727.51 250.72 724.462 249.88 721.774 248.2C719.134 246.472 717.022 244.144 715.438 241.216C713.902 238.24 713.134 234.832 713.134 230.992C713.134 227.2 713.902 223.816 715.438 220.84C716.974 217.864 719.062 215.536 721.702 213.856C724.39 212.128 727.414 211.264 730.774 211.264C732.598 211.264 734.35 211.552 736.03 212.128C737.758 212.704 739.294 213.496 740.638 214.504C742.03 215.464 743.11 216.544 743.878 217.744C744.694 218.944 745.126 220.192 745.174 221.488L742.798 221.776V196.72H751.654V250H743.086L742.87 241.144L744.598 241.288C744.55 242.44 744.142 243.568 743.374 244.672C742.606 245.776 741.574 246.784 740.278 247.696C739.03 248.608 737.59 249.352 735.958 249.928C734.326 250.456 732.646 250.72 730.918 250.72ZM732.574 243.232C734.638 243.232 736.462 242.728 738.046 241.72C739.63 240.664 740.854 239.224 741.718 237.4C742.63 235.528 743.086 233.392 743.086 230.992C743.086 228.592 742.63 226.48 741.718 224.656C740.854 222.832 739.63 221.392 738.046 220.336C736.462 219.28 734.638 218.752 732.574 218.752C730.462 218.752 728.614 219.28 727.03 220.336C725.494 221.392 724.27 222.832 723.358 224.656C722.446 226.48 721.99 228.592 721.99 230.992C721.99 233.392 722.446 235.528 723.358 237.4C724.27 239.224 725.494 240.664 727.03 241.72C728.614 242.728 730.462 243.232 732.574 243.232ZM779.491 250.72C775.507 250.72 771.979 249.904 768.907 248.272C765.883 246.592 763.507 244.312 761.779 241.432C760.099 238.504 759.259 235.144 759.259 231.352C759.259 228.376 759.739 225.664 760.699 223.216C761.659 220.768 763.003 218.656 764.731 216.88C766.459 215.056 768.499 213.664 770.851 212.704C773.251 211.696 775.843 211.192 778.627 211.192C781.171 211.192 783.499 211.672 785.611 212.632C787.771 213.592 789.643 214.912 791.227 216.592C792.811 218.224 794.011 220.192 794.827 222.496C795.691 224.752 796.099 227.224 796.051 229.912L795.979 233.08H765.307L763.579 226.96H788.563L787.483 228.184V226.528C787.339 225.088 786.859 223.816 786.043 222.712C785.227 221.56 784.171 220.672 782.875 220.048C781.627 219.376 780.235 219.04 778.699 219.04C776.347 219.04 774.355 219.496 772.723 220.408C771.091 221.272 769.843 222.568 768.979 224.296C768.163 226.024 767.755 228.16 767.755 230.704C767.755 233.152 768.259 235.288 769.267 237.112C770.323 238.936 771.811 240.352 773.731 241.36C775.651 242.368 777.883 242.872 780.427 242.872C782.203 242.872 783.835 242.584 785.323 242.008C786.859 241.432 788.491 240.4 790.219 238.912L794.539 244.96C793.243 246.16 791.755 247.192 790.075 248.056C788.443 248.872 786.715 249.52 784.891 250C783.067 250.48 781.267 250.72 779.491 250.72ZM815.36 250L799.376 212.056H808.952L819.824 240.352L817.952 240.928L829.4 212.056H838.76L821.912 250H815.36ZM861.968 250.72C857.984 250.72 854.456 249.904 851.384 248.272C848.36 246.592 845.984 244.312 844.256 241.432C842.576 238.504 841.736 235.144 841.736 231.352C841.736 228.376 842.216 225.664 843.176 223.216C844.136 220.768 845.48 218.656 847.208 216.88C848.936 215.056 850.976 213.664 853.328 212.704C855.728 211.696 858.32 211.192 861.104 211.192C863.648 211.192 865.976 211.672 868.088 212.632C870.248 213.592 872.12 214.912 873.704 216.592C875.288 218.224 876.488 220.192 877.304 222.496C878.168 224.752 878.576 227.224 878.528 229.912L878.456 233.08H847.784L846.056 226.96H871.04L869.96 228.184V226.528C869.816 225.088 869.336 223.816 868.52 222.712C867.704 221.56 866.648 220.672 865.352 220.048C864.104 219.376 862.712 219.04 861.176 219.04C858.824 219.04 856.832 219.496 855.2 220.408C853.568 221.272 852.32 222.568 851.456 224.296C850.64 226.024 850.232 228.16 850.232 230.704C850.232 233.152 850.736 235.288 851.744 237.112C852.8 238.936 854.288 240.352 856.208 241.36C858.128 242.368 860.36 242.872 862.904 242.872C864.68 242.872 866.312 242.584 867.8 242.008C869.336 241.432 870.968 240.4 872.696 238.912L877.016 244.96C875.72 246.16 874.232 247.192 872.552 248.056C870.92 248.872 869.192 249.52 867.368 250C865.544 250.48 863.744 250.72 861.968 250.72ZM886.444 250V196.72H895.228V250H886.444ZM922.284 250.72C918.492 250.72 915.108 249.88 912.132 248.2C909.156 246.472 906.804 244.12 905.076 241.144C903.396 238.168 902.556 234.784 902.556 230.992C902.556 227.2 903.396 223.816 905.076 220.84C906.804 217.864 909.156 215.536 912.132 213.856C915.108 212.128 918.492 211.264 922.284 211.264C926.028 211.264 929.388 212.128 932.364 213.856C935.34 215.536 937.668 217.864 939.348 220.84C941.076 223.816 941.94 227.2 941.94 230.992C941.94 234.784 941.076 238.168 939.348 241.144C937.668 244.12 935.34 246.472 932.364 248.2C929.388 249.88 926.028 250.72 922.284 250.72ZM922.284 242.872C924.348 242.872 926.196 242.368 927.828 241.36C929.46 240.304 930.732 238.888 931.644 237.112C932.604 235.288 933.06 233.248 933.012 230.992C933.06 228.688 932.604 226.648 931.644 224.872C930.732 223.048 929.46 221.632 927.828 220.624C926.196 219.616 924.348 219.112 922.284 219.112C920.22 219.112 918.348 219.64 916.668 220.696C915.036 221.704 913.764 223.12 912.852 224.944C911.94 226.72 911.484 228.736 911.484 230.992C911.484 233.248 911.94 235.288 912.852 237.112C913.764 238.888 915.036 240.304 916.668 241.36C918.348 242.368 920.22 242.872 922.284 242.872ZM949.864 265.84V212.056H958.504L958.648 220.624L957.136 219.976C957.424 218.488 958.24 217.096 959.584 215.8C960.928 214.504 962.56 213.448 964.48 212.632C966.448 211.816 968.488 211.408 970.6 211.408C973.96 211.408 976.936 212.248 979.528 213.928C982.168 215.608 984.232 217.936 985.72 220.912C987.256 223.84 988.024 227.2 988.024 230.992C988.024 234.784 987.28 238.168 985.792 241.144C984.304 244.072 982.24 246.4 979.6 248.128C977.008 249.808 974.056 250.648 970.744 250.648C968.536 250.648 966.4 250.216 964.336 249.352C962.32 248.488 960.616 247.36 959.224 245.968C957.832 244.576 956.944 243.136 956.56 241.648L958.72 240.568V265.84H949.864ZM969.016 242.8C971.032 242.8 972.832 242.296 974.416 241.288C976 240.28 977.248 238.888 978.16 237.112C979.072 235.336 979.528 233.296 979.528 230.992C979.528 228.688 979.072 226.672 978.16 224.944C977.296 223.168 976.072 221.776 974.488 220.768C972.904 219.712 971.08 219.184 969.016 219.184C966.904 219.184 965.056 219.688 963.472 220.696C961.888 221.704 960.64 223.096 959.728 224.872C958.816 226.648 958.36 228.688 958.36 230.992C958.36 233.296 958.816 235.336 959.728 237.112C960.64 238.888 961.888 240.28 963.472 241.288C965.056 242.296 966.904 242.8 969.016 242.8ZM995.774 250V212.056H1004.41L1004.56 219.76L1003.12 220.336C1003.55 219.088 1004.2 217.936 1005.06 216.88C1005.93 215.776 1006.96 214.816 1008.16 214C1009.36 213.184 1010.63 212.56 1011.97 212.128C1013.32 211.648 1014.71 211.408 1016.15 211.408C1018.21 211.408 1020.04 211.744 1021.62 212.416C1023.21 213.088 1024.53 214.12 1025.58 215.512C1026.69 216.904 1027.53 218.68 1028.1 220.84L1026.73 220.552L1027.24 219.4C1027.81 218.248 1028.58 217.192 1029.54 216.232C1030.5 215.272 1031.58 214.432 1032.78 213.712C1033.98 212.944 1035.23 212.368 1036.53 211.984C1037.87 211.6 1039.17 211.408 1040.41 211.408C1043.29 211.408 1045.69 211.984 1047.61 213.136C1049.53 214.288 1050.97 216.04 1051.93 218.392C1052.89 220.744 1053.37 223.648 1053.37 227.104V250H1044.52V227.68C1044.52 224.8 1043.94 222.664 1042.79 221.272C1041.69 219.88 1039.96 219.184 1037.61 219.184C1036.36 219.184 1035.21 219.4 1034.15 219.832C1033.09 220.216 1032.16 220.792 1031.34 221.56C1030.57 222.28 1029.97 223.144 1029.54 224.152C1029.11 225.112 1028.89 226.192 1028.89 227.392V250H1020.04V227.608C1020.04 224.872 1019.44 222.784 1018.24 221.344C1017.09 219.904 1015.43 219.184 1013.27 219.184C1012.02 219.184 1010.87 219.4 1009.81 219.832C1008.81 220.216 1007.89 220.792 1007.08 221.56C1006.31 222.28 1005.71 223.12 1005.28 224.08C1004.85 225.04 1004.63 226.096 1004.63 227.248V250H995.774ZM1080.99 250.72C1077.01 250.72 1073.48 249.904 1070.41 248.272C1067.38 246.592 1065.01 244.312 1063.28 241.432C1061.6 238.504 1060.76 235.144 1060.76 231.352C1060.76 228.376 1061.24 225.664 1062.2 223.216C1063.16 220.768 1064.5 218.656 1066.23 216.88C1067.96 215.056 1070 213.664 1072.35 212.704C1074.75 211.696 1077.34 211.192 1080.13 211.192C1082.67 211.192 1085 211.672 1087.11 212.632C1089.27 213.592 1091.14 214.912 1092.73 216.592C1094.31 218.224 1095.51 220.192 1096.33 222.496C1097.19 224.752 1097.6 227.224 1097.55 229.912L1097.48 233.08H1066.81L1065.08 226.96H1090.06L1088.98 228.184V226.528C1088.84 225.088 1088.36 223.816 1087.54 222.712C1086.73 221.56 1085.67 220.672 1084.38 220.048C1083.13 219.376 1081.74 219.04 1080.2 219.04C1077.85 219.04 1075.86 219.496 1074.22 220.408C1072.59 221.272 1071.34 222.568 1070.48 224.296C1069.66 226.024 1069.26 228.16 1069.26 230.704C1069.26 233.152 1069.76 235.288 1070.77 237.112C1071.82 238.936 1073.31 240.352 1075.23 241.36C1077.15 242.368 1079.38 242.872 1081.93 242.872C1083.7 242.872 1085.34 242.584 1086.82 242.008C1088.36 241.432 1089.99 240.4 1091.72 238.912L1096.04 244.96C1094.74 246.16 1093.26 247.192 1091.58 248.056C1089.94 248.872 1088.22 249.52 1086.39 250C1084.57 250.48 1082.77 250.72 1080.99 250.72ZM1105.39 250V212.056H1113.96L1114.11 219.832L1112.45 220.696C1112.98 219.016 1113.91 217.48 1115.26 216.088C1116.65 214.648 1118.31 213.496 1120.23 212.632C1122.15 211.72 1124.14 211.264 1126.2 211.264C1129.08 211.264 1131.48 211.84 1133.4 212.992C1135.37 214.144 1136.83 215.872 1137.79 218.176C1138.75 220.48 1139.23 223.36 1139.23 226.816V250H1130.45V227.464C1130.45 225.496 1130.19 223.888 1129.66 222.64C1129.13 221.344 1128.31 220.408 1127.21 219.832C1126.11 219.208 1124.76 218.944 1123.18 219.04C1121.88 219.04 1120.68 219.256 1119.58 219.688C1118.47 220.072 1117.51 220.648 1116.7 221.416C1115.93 222.136 1115.31 223 1114.83 224.008C1114.39 224.968 1114.18 226.024 1114.18 227.176V250H1109.79C1108.97 250 1108.18 250 1107.41 250C1106.69 250 1106.02 250 1105.39 250ZM1153.45 250V202.408H1162.23V250H1153.45ZM1145.96 220.264V212.056H1170.51V220.264H1145.96ZM163.064 340.72C161.384 340.72 159.752 340.48 158.168 340C156.584 339.472 155.12 338.776 153.776 337.912C152.48 337.048 151.4 336.088 150.536 335.032C149.672 333.928 149.096 332.824 148.808 331.72L150.896 330.784L150.68 339.784H142.184V286.72H150.968V310.768L149.456 310.12C149.696 308.968 150.224 307.888 151.04 306.88C151.856 305.824 152.888 304.888 154.136 304.072C155.384 303.208 156.752 302.536 158.24 302.056C159.728 301.528 161.264 301.264 162.848 301.264C166.208 301.264 169.184 302.128 171.776 303.856C174.416 305.536 176.48 307.864 177.968 310.84C179.504 313.768 180.272 317.152 180.272 320.992C180.272 324.784 179.528 328.168 178.04 331.144C176.552 334.12 174.488 336.472 171.848 338.2C169.256 339.88 166.328 340.72 163.064 340.72ZM161.264 332.944C163.28 332.944 165.08 332.44 166.664 331.432C168.248 330.376 169.496 328.96 170.408 327.184C171.32 325.36 171.776 323.296 171.776 320.992C171.776 318.64 171.32 316.576 170.408 314.8C169.544 312.976 168.32 311.56 166.736 310.552C165.152 309.544 163.328 309.04 161.264 309.04C159.152 309.04 157.304 309.544 155.72 310.552C154.136 311.56 152.888 312.976 151.976 314.8C151.064 316.576 150.608 318.64 150.608 320.992C150.608 323.296 151.064 325.36 151.976 327.184C152.888 328.96 154.136 330.376 155.72 331.432C157.304 332.44 159.152 332.944 161.264 332.944ZM205.952 340.72C201.968 340.72 198.44 339.904 195.368 338.272C192.344 336.592 189.968 334.312 188.24 331.432C186.56 328.504 185.72 325.144 185.72 321.352C185.72 318.376 186.2 315.664 187.16 313.216C188.12 310.768 189.464 308.656 191.192 306.88C192.92 305.056 194.96 303.664 197.312 302.704C199.712 301.696 202.304 301.192 205.088 301.192C207.632 301.192 209.96 301.672 212.072 302.632C214.232 303.592 216.104 304.912 217.688 306.592C219.272 308.224 220.472 310.192 221.288 312.496C222.152 314.752 222.56 317.224 222.512 319.912L222.44 323.08H191.768L190.04 316.96H215.024L213.944 318.184V316.528C213.8 315.088 213.32 313.816 212.504 312.712C211.688 311.56 210.632 310.672 209.336 310.048C208.088 309.376 206.696 309.04 205.16 309.04C202.808 309.04 200.816 309.496 199.184 310.408C197.552 311.272 196.304 312.568 195.44 314.296C194.624 316.024 194.216 318.16 194.216 320.704C194.216 323.152 194.72 325.288 195.728 327.112C196.784 328.936 198.272 330.352 200.192 331.36C202.112 332.368 204.344 332.872 206.888 332.872C208.664 332.872 210.296 332.584 211.784 332.008C213.32 331.432 214.952 330.4 216.68 328.912L221 334.96C219.704 336.16 218.216 337.192 216.536 338.056C214.904 338.872 213.176 339.52 211.352 340C209.528 340.48 207.728 340.72 205.952 340.72ZM235.485 356.56L243.477 337.984L243.549 343.96L224.829 302.056H234.981L245.493 327.04C245.829 327.664 246.165 328.504 246.501 329.56C246.837 330.568 247.125 331.552 247.365 332.512L245.565 333.16C245.901 332.248 246.237 331.264 246.573 330.208C246.957 329.152 247.341 328.096 247.725 327.04L256.653 302.056H266.877L251.109 340L244.701 356.56H235.485ZM288.98 340.72C285.188 340.72 281.804 339.88 278.828 338.2C275.852 336.472 273.5 334.12 271.772 331.144C270.092 328.168 269.252 324.784 269.252 320.992C269.252 317.2 270.092 313.816 271.772 310.84C273.5 307.864 275.852 305.536 278.828 303.856C281.804 302.128 285.188 301.264 288.98 301.264C292.724 301.264 296.084 302.128 299.06 303.856C302.036 305.536 304.364 307.864 306.044 310.84C307.772 313.816 308.636 317.2 308.636 320.992C308.636 324.784 307.772 328.168 306.044 331.144C304.364 334.12 302.036 336.472 299.06 338.2C296.084 339.88 292.724 340.72 288.98 340.72ZM288.98 332.872C291.044 332.872 292.892 332.368 294.524 331.36C296.156 330.304 297.428 328.888 298.34 327.112C299.3 325.288 299.756 323.248 299.708 320.992C299.756 318.688 299.3 316.648 298.34 314.872C297.428 313.048 296.156 311.632 294.524 310.624C292.892 309.616 291.044 309.112 288.98 309.112C286.916 309.112 285.044 309.64 283.364 310.696C281.732 311.704 280.46 313.12 279.548 314.944C278.636 316.72 278.18 318.736 278.18 320.992C278.18 323.248 278.636 325.288 279.548 327.112C280.46 328.888 281.732 330.304 283.364 331.36C285.044 332.368 286.916 332.872 288.98 332.872ZM316.559 340V302.056H325.127L325.271 309.832L323.615 310.696C324.143 309.016 325.079 307.48 326.423 306.088C327.815 304.648 329.471 303.496 331.391 302.632C333.311 301.72 335.303 301.264 337.367 301.264C340.247 301.264 342.647 301.84 344.567 302.992C346.535 304.144 347.999 305.872 348.959 308.176C349.919 310.48 350.399 313.36 350.399 316.816V340H341.615V317.464C341.615 315.496 341.351 313.888 340.823 312.64C340.295 311.344 339.479 310.408 338.375 309.832C337.271 309.208 335.927 308.944 334.343 309.04C333.047 309.04 331.847 309.256 330.743 309.688C329.639 310.072 328.679 310.648 327.863 311.416C327.095 312.136 326.471 313 325.991 314.008C325.559 314.968 325.343 316.024 325.343 317.176V340H320.951C320.135 340 319.343 340 318.575 340C317.855 340 317.183 340 316.559 340ZM375.77 340.72C372.362 340.72 369.314 339.88 366.626 338.2C363.986 336.472 361.874 334.144 360.29 331.216C358.754 328.24 357.986 324.832 357.986 320.992C357.986 317.2 358.754 313.816 360.29 310.84C361.826 307.864 363.914 305.536 366.554 303.856C369.242 302.128 372.266 301.264 375.626 301.264C377.45 301.264 379.202 301.552 380.882 302.128C382.61 302.704 384.146 303.496 385.49 304.504C386.882 305.464 387.962 306.544 388.73 307.744C389.546 308.944 389.978 310.192 390.026 311.488L387.65 311.776V286.72H396.506V340H387.938L387.722 331.144L389.45 331.288C389.402 332.44 388.994 333.568 388.226 334.672C387.458 335.776 386.426 336.784 385.13 337.696C383.882 338.608 382.442 339.352 380.81 339.928C379.178 340.456 377.498 340.72 375.77 340.72ZM377.426 333.232C379.49 333.232 381.314 332.728 382.898 331.72C384.482 330.664 385.706 329.224 386.57 327.4C387.482 325.528 387.938 323.392 387.938 320.992C387.938 318.592 387.482 316.48 386.57 314.656C385.706 312.832 384.482 311.392 382.898 310.336C381.314 309.28 379.49 308.752 377.426 308.752C375.314 308.752 373.466 309.28 371.882 310.336C370.346 311.392 369.122 312.832 368.21 314.656C367.298 316.48 366.842 318.592 366.842 320.992C366.842 323.392 367.298 325.528 368.21 327.4C369.122 329.224 370.346 330.664 371.882 331.72C373.466 332.728 375.314 333.232 377.426 333.232ZM433.485 356.56L441.477 337.984L441.549 343.96L422.829 302.056H432.981L443.493 327.04C443.829 327.664 444.165 328.504 444.501 329.56C444.837 330.568 445.125 331.552 445.365 332.512L443.565 333.16C443.901 332.248 444.237 331.264 444.573 330.208C444.957 329.152 445.341 328.096 445.725 327.04L454.653 302.056H464.877L449.109 340L442.701 356.56H433.485ZM486.98 340.72C483.188 340.72 479.804 339.88 476.828 338.2C473.852 336.472 471.5 334.12 469.772 331.144C468.092 328.168 467.252 324.784 467.252 320.992C467.252 317.2 468.092 313.816 469.772 310.84C471.5 307.864 473.852 305.536 476.828 303.856C479.804 302.128 483.188 301.264 486.98 301.264C490.724 301.264 494.084 302.128 497.06 303.856C500.036 305.536 502.364 307.864 504.044 310.84C505.772 313.816 506.636 317.2 506.636 320.992C506.636 324.784 505.772 328.168 504.044 331.144C502.364 334.12 500.036 336.472 497.06 338.2C494.084 339.88 490.724 340.72 486.98 340.72ZM486.98 332.872C489.044 332.872 490.892 332.368 492.524 331.36C494.156 330.304 495.428 328.888 496.34 327.112C497.3 325.288 497.756 323.248 497.708 320.992C497.756 318.688 497.3 316.648 496.34 314.872C495.428 313.048 494.156 311.632 492.524 310.624C490.892 309.616 489.044 309.112 486.98 309.112C484.916 309.112 483.044 309.64 481.364 310.696C479.732 311.704 478.46 313.12 477.548 314.944C476.636 316.72 476.18 318.736 476.18 320.992C476.18 323.248 476.636 325.288 477.548 327.112C478.46 328.888 479.732 330.304 481.364 331.36C483.044 332.368 484.916 332.872 486.98 332.872ZM527.735 340.72C524.999 340.72 522.623 340.096 520.607 338.848C518.639 337.6 517.103 335.848 515.999 333.592C514.943 331.336 514.415 328.624 514.415 325.456V302.056H523.199V323.584C523.199 326.56 523.895 328.912 525.287 330.64C526.727 332.368 528.719 333.232 531.263 333.232C532.511 333.232 533.639 333.04 534.647 332.656C535.703 332.224 536.615 331.648 537.383 330.928C538.151 330.16 538.751 329.248 539.183 328.192C539.615 327.136 539.831 326.008 539.831 324.808V302.056H548.615V340H540.047L539.903 332.08L541.487 331.216C540.911 332.992 539.927 334.6 538.535 336.04C537.191 337.48 535.583 338.632 533.711 339.496C531.839 340.312 529.847 340.72 527.735 340.72ZM559.067 340V302.056H567.707L567.851 314.152L566.699 311.416C567.227 309.496 568.139 307.768 569.435 306.232C570.731 304.696 572.219 303.496 573.899 302.632C575.627 301.72 577.403 301.264 579.227 301.264C580.043 301.264 580.811 301.336 581.531 301.48C582.299 301.624 582.923 301.792 583.403 301.984L581.099 311.632C580.523 311.344 579.851 311.128 579.083 310.984C578.363 310.792 577.619 310.696 576.851 310.696C575.603 310.696 574.427 310.936 573.323 311.416C572.267 311.848 571.331 312.472 570.515 313.288C569.747 314.104 569.123 315.064 568.643 316.168C568.163 317.224 567.923 318.4 567.923 319.696V340H559.067ZM610.537 340V286.72H619.321V340H610.537ZM630.809 340V302.056H639.593V340H630.809ZM635.129 293.992C633.353 293.992 631.961 293.56 630.953 292.696C629.993 291.784 629.513 290.512 629.513 288.88C629.513 287.344 630.017 286.12 631.025 285.208C632.033 284.248 633.401 283.768 635.129 283.768C636.905 283.768 638.273 284.224 639.233 285.136C640.241 286 640.745 287.248 640.745 288.88C640.745 290.368 640.241 291.592 639.233 292.552C638.225 293.512 636.857 293.992 635.129 293.992ZM650.681 340V302.056H659.321L659.465 309.76L658.025 310.336C658.457 309.088 659.105 307.936 659.969 306.88C660.833 305.776 661.865 304.816 663.065 304C664.265 303.184 665.537 302.56 666.881 302.128C668.225 301.648 669.617 301.408 671.057 301.408C673.121 301.408 674.945 301.744 676.529 302.416C678.113 303.088 679.433 304.12 680.489 305.512C681.593 306.904 682.433 308.68 683.009 310.84L681.641 310.552L682.145 309.4C682.721 308.248 683.489 307.192 684.449 306.232C685.409 305.272 686.489 304.432 687.689 303.712C688.889 302.944 690.137 302.368 691.433 301.984C692.777 301.6 694.073 301.408 695.321 301.408C698.201 301.408 700.601 301.984 702.521 303.136C704.441 304.288 705.881 306.04 706.841 308.392C707.801 310.744 708.281 313.648 708.281 317.104V340H699.425V317.68C699.425 314.8 698.849 312.664 697.697 311.272C696.593 309.88 694.865 309.184 692.513 309.184C691.265 309.184 690.113 309.4 689.057 309.832C688.001 310.216 687.065 310.792 686.249 311.56C685.481 312.28 684.881 313.144 684.449 314.152C684.017 315.112 683.801 316.192 683.801 317.392V340H674.945V317.608C674.945 314.872 674.345 312.784 673.145 311.344C671.993 309.904 670.337 309.184 668.177 309.184C666.929 309.184 665.777 309.4 664.721 309.832C663.713 310.216 662.801 310.792 661.985 311.56C661.217 312.28 660.617 313.12 660.185 314.08C659.753 315.04 659.537 316.096 659.537 317.248V340H650.681ZM719.122 340V302.056H727.906V340H719.122ZM723.442 293.992C721.666 293.992 720.274 293.56 719.266 292.696C718.306 291.784 717.826 290.512 717.826 288.88C717.826 287.344 718.33 286.12 719.338 285.208C720.346 284.248 721.714 283.768 723.442 283.768C725.218 283.768 726.586 284.224 727.546 285.136C728.554 286 729.058 287.248 729.058 288.88C729.058 290.368 728.554 291.592 727.546 292.552C726.538 293.512 725.17 293.992 723.442 293.992ZM743.313 340V292.408H752.097V340H743.313ZM735.825 310.264V302.056H760.377V310.264H735.825ZM781.2 340.72C777.888 340.72 774.888 340.168 772.2 339.064C769.56 337.912 767.4 336.28 765.72 334.168L771.408 329.272C772.848 330.856 774.456 332.032 776.232 332.8C778.008 333.52 779.88 333.88 781.848 333.88C782.664 333.88 783.384 333.784 784.008 333.592C784.68 333.4 785.256 333.112 785.736 332.728C786.216 332.344 786.576 331.888 786.816 331.36C787.104 330.832 787.248 330.256 787.248 329.632C787.248 328.48 786.816 327.568 785.952 326.896C785.472 326.608 784.728 326.272 783.72 325.888C782.712 325.456 781.392 325.048 779.76 324.664C777.168 323.992 774.984 323.224 773.208 322.36C771.48 321.448 770.136 320.44 769.176 319.336C768.36 318.376 767.76 317.344 767.376 316.24C766.992 315.088 766.8 313.816 766.8 312.424C766.8 310.264 767.424 308.344 768.672 306.664C769.968 304.984 771.672 303.664 773.784 302.704C775.896 301.744 778.248 301.264 780.84 301.264C782.76 301.264 784.608 301.504 786.384 301.984C788.208 302.464 789.888 303.16 791.424 304.072C792.96 304.936 794.28 305.992 795.384 307.24L790.488 312.64C789.624 311.776 788.64 311.008 787.536 310.336C786.48 309.616 785.4 309.064 784.296 308.68C783.192 308.296 782.16 308.104 781.2 308.104C780.288 308.104 779.472 308.2 778.752 308.392C778.032 308.536 777.432 308.776 776.952 309.112C776.472 309.448 776.088 309.88 775.8 310.408C775.56 310.888 775.44 311.44 775.44 312.064C775.488 312.688 775.632 313.264 775.872 313.792C776.16 314.272 776.544 314.68 777.024 315.016C777.504 315.352 778.272 315.736 779.328 316.168C780.384 316.6 781.752 317.008 783.432 317.392C785.784 318.016 787.752 318.712 789.336 319.48C790.92 320.248 792.168 321.136 793.08 322.144C793.992 323.008 794.64 324.016 795.024 325.168C795.408 326.32 795.6 327.616 795.6 329.056C795.6 331.312 794.952 333.328 793.656 335.104C792.408 336.832 790.704 338.2 788.544 339.208C786.384 340.216 783.936 340.72 781.2 340.72Z" fill="black"/>
</g>
<path d="M226.023 141.32C224.338 141.32 222.781 141.032 221.351 140.456C219.943 139.88 218.717 139.08 217.671 138.056C216.647 137.011 215.847 135.784 215.271 134.376C214.695 132.947 214.407 131.4 214.407 129.736C214.407 128.051 214.695 126.504 215.271 125.096C215.847 123.667 216.647 122.429 217.671 121.384C218.717 120.339 219.943 119.528 221.351 118.952C222.781 118.376 224.338 118.088 226.023 118.088C227.687 118.088 229.223 118.376 230.631 118.952C232.039 119.528 233.255 120.339 234.279 121.384C235.325 122.429 236.135 123.667 236.711 125.096C237.287 126.504 237.575 128.051 237.575 129.736C237.575 131.4 237.287 132.936 236.711 134.344C236.135 135.752 235.325 136.979 234.279 138.024C233.255 139.069 232.039 139.88 230.631 140.456C229.223 141.032 227.687 141.32 226.023 141.32ZM226.023 136.168C226.898 136.168 227.698 136.008 228.423 135.688C229.149 135.368 229.778 134.92 230.311 134.344C230.866 133.768 231.293 133.085 231.591 132.296C231.89 131.507 232.039 130.653 232.039 129.736C232.039 128.797 231.89 127.933 231.591 127.144C231.293 126.355 230.866 125.672 230.311 125.096C229.778 124.499 229.149 124.04 228.423 123.72C227.698 123.4 226.898 123.24 226.023 123.24C225.149 123.24 224.338 123.4 223.591 123.72C222.866 124.04 222.226 124.499 221.671 125.096C221.138 125.672 220.722 126.355 220.423 127.144C220.125 127.933 219.975 128.797 219.975 129.736C219.975 130.973 220.231 132.083 220.743 133.064C221.277 134.024 221.991 134.781 222.887 135.336C223.805 135.891 224.85 136.168 226.023 136.168ZM241.21 148.04V124.008H246.106L246.33 127.752L245.338 127.464C245.466 126.781 245.818 126.163 246.394 125.608C246.991 125.032 247.727 124.573 248.602 124.232C249.476 123.869 250.404 123.688 251.386 123.688C252.836 123.688 254.127 124.061 255.258 124.808C256.388 125.555 257.274 126.6 257.914 127.944C258.575 129.267 258.906 130.792 258.906 132.52C258.906 134.205 258.575 135.709 257.914 137.032C257.274 138.355 256.378 139.4 255.226 140.168C254.095 140.915 252.804 141.288 251.354 141.288C250.372 141.288 249.444 141.107 248.57 140.744C247.695 140.36 246.959 139.869 246.362 139.272C245.764 138.675 245.38 138.024 245.21 137.32L246.394 136.84V148.04H241.21ZM250.106 136.936C250.874 136.936 251.535 136.755 252.09 136.392C252.666 136.029 253.103 135.517 253.402 134.856C253.722 134.173 253.882 133.395 253.882 132.52C253.882 131.624 253.722 130.845 253.402 130.184C253.103 129.501 252.666 128.979 252.09 128.616C251.535 128.232 250.874 128.04 250.106 128.04C249.316 128.04 248.634 128.232 248.058 128.616C247.482 128.979 247.034 129.491 246.714 130.152C246.394 130.813 246.234 131.603 246.234 132.52C246.234 133.395 246.394 134.173 246.714 134.856C247.034 135.517 247.482 136.029 248.058 136.392C248.634 136.755 249.316 136.936 250.106 136.936ZM270.368 141.32C268.491 141.32 266.848 140.947 265.44 140.2C264.053 139.453 262.976 138.429 262.208 137.128C261.461 135.805 261.088 134.301 261.088 132.616C261.088 131.293 261.301 130.088 261.728 129C262.155 127.891 262.752 126.941 263.52 126.152C264.309 125.363 265.227 124.755 266.272 124.328C267.339 123.88 268.501 123.656 269.76 123.656C270.955 123.656 272.043 123.869 273.024 124.296C274.005 124.723 274.859 125.32 275.584 126.088C276.309 126.856 276.864 127.763 277.248 128.808C277.632 129.853 277.813 130.995 277.792 132.232L277.76 133.64H264.256L263.488 130.728H273.568L273.024 131.304V130.664C272.981 130.131 272.811 129.672 272.512 129.288C272.235 128.883 271.861 128.563 271.392 128.328C270.944 128.093 270.432 127.976 269.856 127.976C269.003 127.976 268.277 128.147 267.68 128.488C267.104 128.808 266.667 129.277 266.368 129.896C266.069 130.515 265.92 131.283 265.92 132.2C265.92 133.117 266.112 133.928 266.496 134.632C266.901 135.336 267.477 135.88 268.224 136.264C268.992 136.648 269.899 136.84 270.944 136.84C271.648 136.84 272.288 136.733 272.864 136.52C273.44 136.307 274.059 135.944 274.72 135.432L277.12 138.824C276.459 139.379 275.755 139.848 275.008 140.232C274.261 140.595 273.493 140.861 272.704 141.032C271.936 141.224 271.157 141.32 270.368 141.32ZM281.053 141V124.008H285.949L286.141 127.464L285.085 127.848C285.32 127.08 285.736 126.387 286.333 125.768C286.952 125.128 287.688 124.616 288.541 124.232C289.395 123.848 290.291 123.656 291.229 123.656C292.509 123.656 293.587 123.923 294.461 124.456C295.336 124.968 295.987 125.747 296.413 126.792C296.861 127.816 297.085 129.085 297.085 130.6V141H291.933V130.984C291.933 130.301 291.837 129.736 291.645 129.288C291.453 128.84 291.165 128.509 290.781 128.296C290.397 128.083 289.917 127.987 289.341 128.008C288.893 128.008 288.477 128.083 288.093 128.232C287.709 128.36 287.368 128.563 287.069 128.84C286.792 129.096 286.579 129.395 286.429 129.736C286.28 130.077 286.205 130.461 286.205 130.888V141H283.613C283.059 141 282.557 141 282.109 141C281.683 141 281.331 141 281.053 141ZM308.853 141.32C307.21 141.32 305.728 140.936 304.405 140.168C303.104 139.4 302.08 138.355 301.333 137.032C300.586 135.688 300.213 134.184 300.213 132.52C300.213 130.813 300.586 129.299 301.333 127.976C302.08 126.632 303.104 125.576 304.405 124.808C305.728 124.04 307.21 123.656 308.853 123.656C310.368 123.656 311.754 123.933 313.013 124.488C314.293 125.021 315.296 125.757 316.021 126.696L313.237 130.088C312.96 129.725 312.618 129.395 312.213 129.096C311.808 128.797 311.36 128.563 310.869 128.392C310.378 128.221 309.866 128.136 309.333 128.136C308.522 128.136 307.808 128.328 307.189 128.712C306.57 129.075 306.09 129.587 305.749 130.248C305.408 130.909 305.237 131.656 305.237 132.488C305.237 133.299 305.408 134.035 305.749 134.696C306.112 135.336 306.602 135.848 307.221 136.232C307.84 136.616 308.533 136.808 309.301 136.808C309.856 136.808 310.368 136.733 310.837 136.584C311.306 136.435 311.733 136.221 312.117 135.944C312.522 135.667 312.896 135.336 313.237 134.952L316.021 138.344C315.296 139.24 314.282 139.965 312.981 140.52C311.68 141.053 310.304 141.32 308.853 141.32ZM318.835 141V124.008H323.731L323.955 129.544L322.995 128.456C323.272 127.56 323.699 126.749 324.275 126.024C324.851 125.299 325.533 124.723 326.323 124.296C327.133 123.869 327.976 123.656 328.851 123.656C329.235 123.656 329.587 123.688 329.907 123.752C330.248 123.795 330.547 123.869 330.803 123.976L329.427 129.64C329.192 129.512 328.872 129.405 328.467 129.32C328.083 129.213 327.677 129.16 327.251 129.16C326.781 129.16 326.344 129.245 325.939 129.416C325.555 129.565 325.213 129.789 324.915 130.088C324.637 130.387 324.413 130.739 324.243 131.144C324.093 131.549 324.019 132.008 324.019 132.52V141H318.835ZM341.766 141V130.568C341.766 129.693 341.52 129.053 341.03 128.648C340.56 128.221 339.899 128.008 339.046 128.008C338.214 128.008 337.467 128.168 336.806 128.488C336.166 128.787 335.547 129.288 334.95 129.992L331.878 127.016C332.902 125.971 334.075 125.149 335.398 124.552C336.72 123.955 338.16 123.656 339.718 123.656C341.147 123.656 342.384 123.869 343.43 124.296C344.475 124.723 345.286 125.373 345.862 126.248C346.438 127.123 346.726 128.232 346.726 129.576V141H341.766ZM337.35 141.32C336.283 141.32 335.312 141.107 334.438 140.68C333.584 140.253 332.902 139.667 332.39 138.92C331.899 138.152 331.654 137.256 331.654 136.232C331.654 135.357 331.814 134.589 332.134 133.928C332.454 133.267 332.923 132.723 333.542 132.296C334.182 131.848 334.971 131.517 335.91 131.304C336.87 131.069 337.979 130.952 339.238 130.952H344.39L344.102 134.184H339.366C338.918 134.184 338.523 134.227 338.182 134.312C337.84 134.376 337.552 134.493 337.318 134.664C337.083 134.813 336.902 134.995 336.774 135.208C336.667 135.421 336.614 135.677 336.614 135.976C336.614 136.296 336.699 136.573 336.87 136.808C337.04 137.043 337.264 137.224 337.542 137.352C337.84 137.48 338.182 137.544 338.566 137.544C339.12 137.544 339.643 137.459 340.134 137.288C340.646 137.096 341.094 136.829 341.478 136.488C341.883 136.147 342.203 135.752 342.438 135.304L343.334 137.608C342.886 138.333 342.342 138.973 341.702 139.528C341.083 140.083 340.4 140.52 339.654 140.84C338.928 141.16 338.16 141.32 337.35 141.32ZM352.243 141V119.72H357.395V141H352.243ZM349.235 128.52V124.008H360.659V128.52H349.235ZM371.556 141.32C369.678 141.32 368.036 140.947 366.628 140.2C365.241 139.453 364.164 138.429 363.396 137.128C362.649 135.805 362.276 134.301 362.276 132.616C362.276 131.293 362.489 130.088 362.916 129C363.342 127.891 363.94 126.941 364.708 126.152C365.497 125.363 366.414 124.755 367.46 124.328C368.526 123.88 369.689 123.656 370.948 123.656C372.142 123.656 373.23 123.869 374.212 124.296C375.193 124.723 376.046 125.32 376.772 126.088C377.497 126.856 378.052 127.763 378.436 128.808C378.82 129.853 379.001 130.995 378.98 132.232L378.948 133.64H365.444L364.676 130.728H374.756L374.212 131.304V130.664C374.169 130.131 373.998 129.672 373.7 129.288C373.422 128.883 373.049 128.563 372.58 128.328C372.132 128.093 371.62 127.976 371.044 127.976C370.19 127.976 369.465 128.147 368.868 128.488C368.292 128.808 367.854 129.277 367.556 129.896C367.257 130.515 367.108 131.283 367.108 132.2C367.108 133.117 367.3 133.928 367.684 134.632C368.089 135.336 368.665 135.88 369.411 136.264C370.18 136.648 371.086 136.84 372.132 136.84C372.836 136.84 373.476 136.733 374.052 136.52C374.628 136.307 375.246 135.944 375.908 135.432L378.308 138.824C377.646 139.379 376.942 139.848 376.196 140.232C375.449 140.595 374.681 140.861 373.892 141.032C373.124 141.224 372.345 141.32 371.556 141.32Z" fill="black"/>
<path d="M142 103H198V128.979H142V103Z" fill="#040000"/>
<path d="M174.907 104.732H195.691V126.67H174.907V104.732Z" fill="#FFFB03"/>
<path d="M148.928 104.732H144.31V126.67H148.928V104.732Z" fill="#D5FF03" fill-opacity="0.13"/>
<path d="M159.319 104.732H150.66V126.67H159.319V104.732Z" fill="#D5FF03" fill-opacity="0.23"/>
<path d="M173.176 104.732H160.475V126.67H173.176V104.732Z" fill="#D5FF03" fill-opacity="0.5"/>
<path d="M198 127.247H142V153.227H198V127.247Z" fill="#040000"/>
<path d="M165.093 128.979H144.31V150.918H165.093V128.979Z" fill="#FFFB03"/>
<path d="M191.072 128.979H195.691V150.918H191.072V128.979Z" fill="#D5FF03" fill-opacity="0.13"/>
<path d="M180.681 128.979H189.34V150.918H180.681V128.979Z" fill="#D5FF03" fill-opacity="0.23"/>
<path d="M166.825 128.979H179.526V150.918H166.825V128.979Z" fill="#D5FF03" fill-opacity="0.5"/>
</g>
<defs>
<filter id="filter0_d_744_194" x="142.184" y="196.72" width="1036.33" height="167.84" filterUnits="userSpaceOnUse" color-interpolation-filters="sRGB">
<feFlood flood-opacity="0" result="BackgroundImageFix"/>
<feColorMatrix in="SourceAlpha" type="matrix" values="0 0 0 0 0 0 0 0 0 0 0 0 0 0 0 0 0 0 127 0" result="hardAlpha"/>
<feOffset dx="8" dy="8"/>
<feComposite in2="hardAlpha" operator="out"/>
<feColorMatrix type="matrix" values="0 0 0 0 0 0 0 0 0 0 0 0 0 0 0 0 0 0 0.22 0"/>
<feBlend mode="normal" in2="BackgroundImageFix" result="effect1_dropShadow_744_194"/>
<feBlend mode="normal" in="SourceGraphic" in2="effect1_dropShadow_744_194" result="shape"/>
</filter>
<clipPath id="clip0_744_194">
<rect width="1280" height="530" fill="white"/>
</clipPath>
</defs>
</svg>
